{"title":"Scrum.V.Six.Nations.Special.2013.02.10.pdtv.x264","uid":8130663,"size":727674903,"categoryP":"video","categoryS":"tv_shows","magnet":"?xt=urn:btih:167c3fae0dce8a5e1844488a727e33d69bd59cb3&amp;dn=Scrum.V.Six.Nations.Special.2013.02.10.pdtv.x264&amp;tr=udp%3A%2F%2Ftracker.openbittorrent.com%3A80&amp;tr=udp%3A%2F%2Fopen.demonii.com%3A1337&amp;tr=udp%3A%2F%2Ftracker.coppersurfer.tk%3A6969&amp;tr=udp%3A%2F%2Fexodus.desync.com%3A6969","seeders":1,"leechers":0,"uploader":"rugbybill","files":3,"time":1360598059,"description":"SPORT: Scrum V - Six Nations Special\nOn: BBC 1 Wales \nDate: Sunday 10th February 2013 \nTime: 23:25 to 00:25 \n\nJason Mohammad presents Scrum V Six Nations Special with all the talking points and highlights from France v Wales. Studio guests include former Wales internationals Kingsley Jones and Lyn Jones.\n\nGeneral\nComplete name: 2013.02.10.Scrum.V.pdtv.x264.mkv\nFormat: Matroska\nFormat version: Version 4 / Version 2\nFile size: 693 MiB\nDuration: 58mn 58s\nOverall bit rate: 1 643 Kbps\nEncoded date: UTC 2013-02-11 14:29:30\nWriting application: mkvmerge v6.0.0 ('Coming Up For Air') built on Jan 20 2013 09:52:00\nWriting library: libebml v1.3.0 + libmatroska v1.4.0\n\nVideo\nID: 1\nFormat: AVC\nFormat/Info: Advanced Video Codec\nFormat profile: &lt;a class=&quot;__cf_email__&quot; href=&quot;/cdn-cgi/l/email-protection&quot; data-cfemail=&quot;226a4b454a626e110c13&quot;&gt;[email&amp;#160;protected]&lt;/a&gt;&lt;script cf-hash='f9e31' type=&quot;text/javascript&quot;&gt;\n/* &lt;![CDATA[ */!function(){try{var t=&quot;currentScript&quot;in document?document.currentScript:function(){for(var t=document.getElementsByTagName(&quot;script&quot;),e=t.length;e--;)if(t[e].getAttribute(&quot;cf-hash&quot;))return t[e]}();if(t&amp;&amp;t.previousSibling){var e,r,n,i,c=t.previousSibling,a=c.getAttribute(&quot;data-cfemail&quot;);if(a){for(e=&quot;&quot;,r=parseInt(a.substr(0,2),16),n=2;a.length-n;n+=2)i=parseInt(a.substr(n,2),16)^r,e+=String.fromCharCode(i);e=document.createTextNode(e),c.parentNode.replaceChild(e,c)}}}catch(u){}}();/* ]]&gt; */&lt;/script&gt;\nFormat settings, CABAC: Yes\nFormat settings, ReFrames: 5 frames\nCodec ID: V_MPEG4/ISO/AVC\nDuration: 58mn 58s\nBit rate: 1 483 Kbps\nWidth: 688 pixels\nHeight: 560 pixels\nDisplay aspect ratio: 16:9\nOriginal display aspect ratio: 16:9\nFrame rate mode: Constant\nFrame rate: 25.000 fps\nColor space: YUV\nChroma subsampling: 4:2:0\nBit depth: 8 bits\nScan type: Progressive\nBits/(Pixel*Frame): 0.154\nStream size: 625 MiB (90%)\nWriting library: x264 core 129 r2245 bc13772\n\nAudio\nID: 2\nFormat: AC-3\nFormat/Info: Audio Coding 3\nMode extension: CM (complete main)\nCodec ID: A_AC3\nDuration: 58mn 58s\nBit rate mode: Constant\nBit rate: 128 Kbps\nChannel(s): 2 channels\nChannel positions: Front: L R\nSampling rate: 48.0 KHz\nBit depth: 16 bits\nStream size: 54.0 MiB (8%)\n\n","torrent":{"xt":"urn:btih:167c3fae0dce8a5e1844488a727e33d69bd59cb3","amp;dn":"Scrum.V.Six.Nations.Special.2013.02.10.pdtv.x264","amp;tr":["udp%3A%2F%2Ftracker.openbittorrent.com%3A80","udp%3A%2F%2Fopen.demonii.com%3A1337","udp%3A%2F%2Ftracker.coppersurfer.tk%3A6969","udp%3A%2F%2Fexodus.desync.com%3A6969"],"infoHash":"167c3fae0dce8a5e1844488a727e33d69bd59cb3","infoHashBuffer":{"type":"Buffer","data":[22,124,63,174,13,206,138,94,24,68,72,138,114,126,51,214,155,213,156,179]},"announce":[],"urlList":[]}}